<?xml version="1.0" encoding="UTF-8"?>
<svg width="1088px" height="690px" viewBox="0 0 1088 690" version="1.1" xmlns="http://www.w3.org/2000/svg" xmlns:xlink="http://www.w3.org/1999/xlink">
    <title>undraw_docusaurus_react</title>
    <g id="Page-1" stroke="none" stroke-width="1" fill="none" fill-rule="evenodd">
        <path d="M668.988804,421.756905 L668.988804,462.363795 L628.381912,462.363795 L628.381912,421.756905 L668.988804,421.756905 Z M657.617867,445.686926 L639.556084,445.686926 C637.80678,445.686926 636.396371,447.08642 636.396371,448.824808 C636.396371,450.574112 637.817696,451.984521 639.556084,451.984521 L657.617867,451.984521 C659.345339,451.984521 660.755748,450.563196 660.755748,448.824808 C660.755748,447.086392 659.345339,445.686926 657.617867,445.686926 Z M500.1013,428.764281 L500.1013,438.921322 L622.084316,438.921322 L622.084316,445.229833 L496.952503,445.229833 C495.214115,445.229833 493.792789,443.819423 493.792789,442.070119 L493.792789,428.764281 C495.891988,428.851747 498.002102,428.840832 500.1013,428.764281 Z M657.617867,432.151575 L639.556084,432.151575 C637.80678,432.151575 636.396371,433.561985 636.396371,435.289457 C636.396371,437.038761 637.817696,438.44917 639.556084,438.44917 L657.617867,438.44917 C659.345339,438.44917 660.755748,437.027845 660.755748,435.289457 C660.755748,433.561985 659.345339,432.151575 657.617867,432.151575 Z M443.140253,289.230734 C444.813062,289.198547 446.190528,290.477743 446.310882,292.117608 L447.393285,305.499858 C447.524471,307.238246 446.234359,308.758094 444.507027,308.889084 C442.768639,309.020297 441.259707,307.730158 441.117801,305.980714 L440.669524,300.328273 C428.894418,315.252174 423.963259,333.467617 425.559772,351.123275 C428.697654,385.978364 456.664296,413.475064 491.477402,416.089265 C506.248201,417.193528 521.227241,413.738611 534.105123,405.888561 C535.592055,404.992035 537.51646,405.473087 538.423873,406.949104 C539.320399,408.436036 538.839347,410.360441 537.36333,411.267854 C509.133311,428.389476 472.615657,426.038654 446.977448,404.478207 C430.468232,390.702148 421.098248,371.526391 419.316168,351.670774 C417.555892,332.154667 423.131951,311.970735 436.394129,295.61658 L429.812163,295.725934 L429.801384,295.714879 C428.073912,295.747682 426.641671,294.359132 426.619839,292.631576 C426.587041,290.893188 427.975585,289.460947 429.714057,289.450031 L443.140253,289.230734 Z M651.856547,403.749702 L651.856547,415.470226 L645.548036,415.470226 L645.548036,403.749702 L651.856547,403.749702 Z M551.129229,288.788896 C565.747207,302.958484 573.684696,321.600765 574.6688,340.613904 C575.663736,359.616128 569.737923,378.978853 556.694344,394.602487 C555.983667,395.466209 555.218356,396.340875 554.420213,397.204625 L560.835307,397.092724 C562.562779,397.05992 563.99502,398.44847 564.016852,400.176026 C564.049655,401.914414 562.661105,403.346655 560.933549,403.379403 L547.485525,403.587757 C545.812716,403.619943 544.446166,402.340748 544.314896,400.700882 L543.232493,387.318632 C543.101307,385.580244 544.391418,384.060397 546.140862,383.929407 C547.868335,383.798193 549.388182,385.088332 549.519172,386.837776 L550.000252,392.730925 C550.645322,392.031193 551.268504,391.298656 551.88077,390.555204 C563.863554,376.221598 569.319511,358.412279 568.389986,340.930156 C566.50944,304.916309 538.116747,275.986557 502.310021,273.285588 C487.539222,272.181326 472.571378,275.65813 459.6823,283.486293 C458.195368,284.393762 456.260047,283.912682 455.363549,282.447637 C454.45608,280.960705 454.915272,279.025384 456.402204,278.128887 C486.490714,259.782733 525.533004,263.970214 551.129229,288.788896 Z M669,356.842975 L669,397.449867 L628.393107,397.449867 L628.393107,356.842975 L669,356.842975 Z M501.362315,296.869862 C505.440358,296.869862 508.7642,300.128098 508.862611,304.195224 C514.722733,306.010051 520.112914,309.126101 524.617514,313.29175 C526.290155,312.395197 528.247308,312.154685 530.084107,312.613877 C534.522931,313.280583 537.190705,321.108913 539.399229,324.246795 C541.432961,327.778206 540.285119,332.282778 536.808287,334.403836 C538.164033,340.395228 538.164033,346.605496 536.808287,352.596888 C540.285091,354.717918 541.433073,359.222518 539.399481,362.75393 L539.399481,362.743014 L534.709032,370.877267 C532.653497,374.386791 528.192561,375.644127 524.617486,373.719862 C520.112886,377.885511 514.722985,380.990533 508.862583,382.805472 C508.76406,386.872599 505.44033,390.130835 501.362287,390.130835 L491.981389,390.130835 C487.903347,390.130835 484.579504,386.872599 484.481094,382.805472 C478.620972,380.990645 473.23079,377.874595 468.72619,373.708946 C465.150836,375.633211 460.690123,374.375931 458.634644,370.877267 L458.645588,370.888183 L453.944223,362.75393 C451.910744,359.222518 453.058586,354.717946 456.535418,352.596888 C455.179672,346.605496 455.179672,340.395228 456.535418,334.403836 C453.058614,332.282806 451.910632,327.778206 453.944223,324.246795 L453.944223,324.257739 C456.108917,321.152884 458.820521,313.302694 463.204767,312.624821 C465.063537,312.121909 467.042493,312.362449 468.726218,313.280835 C473.230818,309.115185 478.62072,306.010163 484.481122,304.195224 C484.579644,300.128098 487.903375,296.869862 491.981417,296.869862 L501.362315,296.869862 Z M657.617867,380.754803 L639.556084,380.754803 C637.80678,380.754803 636.396371,382.176128 636.396371,383.914516 C636.396371,385.66382 637.817696,387.07423 639.556084,387.07423 L657.617867,387.07423 C659.345339,387.07423 660.755748,385.652904 660.755748,383.914516 C660.755748,382.165212 659.345339,380.754803 657.617867,380.754803 Z M500.137531,305.616662 L493.205698,305.616662 C492.998017,308.765459 490.84396,311.454952 487.804601,312.329618 C482.655127,313.794578 477.953762,316.506183 474.105232,320.234359 C471.831101,322.421024 468.430679,322.945824 465.599001,321.557302 L462.133084,327.55961 C464.768082,329.319858 466.003558,332.53415 465.238218,335.606537 C463.937163,340.788758 463.937163,346.211687 465.238218,351.405103 C466.003446,354.466574 464.757082,357.680839 462.133084,359.441115 L465.599001,365.443422 C468.430959,364.043957 471.831101,364.568756 474.105232,366.766365 C477.953762,370.494541 482.655127,373.206034 487.804601,374.671107 C490.8441,375.545772 492.997961,378.235265 493.205698,381.384063 L500.137531,381.384063 C500.345211,378.235265 502.499269,375.545772 505.538628,374.671107 C510.688102,373.206146 515.389466,370.494541 519.237997,366.766365 C521.512128,364.568756 524.912549,364.043957 527.744228,365.443422 L531.210145,359.441115 C528.575147,357.680867 527.339671,354.466574 528.10501,351.394188 C529.406065,346.211967 529.406065,340.789038 528.10501,335.595621 L528.042694,335.325136 C527.41429,332.346333 528.663323,329.268113 531.210145,327.55961 L527.744228,321.557302 C524.91227,322.956768 521.512128,322.431968 519.237997,320.234359 C515.389466,316.506183 510.688102,313.79469 505.538628,312.329618 C502.499129,311.454952 500.345267,308.765459 500.137531,305.616662 Z M657.617867,367.219452 L639.556084,367.219452 C637.80678,367.219452 636.396371,368.640777 636.396371,370.379165 C636.396371,372.128469 637.817696,373.538879 639.556084,373.538879 L657.617867,373.538879 C659.345339,373.538879 660.755748,372.117553 660.755748,370.379165 C660.755748,368.629861 659.345339,367.219452 657.617867,367.219452 Z M496.670747,319.765706 C509.77982,319.776622 520.396138,330.392968 520.407082,343.502042 C520.407082,353.101536 514.623371,361.760589 505.756357,365.434186 C496.889343,369.107783 486.677723,367.085275 479.888076,360.284712 C473.087681,353.495065 471.065005,343.283445 474.738602,334.416431 C478.412199,325.549417 487.071253,319.765706 496.670747,319.765706 Z M486.065597,332.897143 C481.779621,337.182867 480.500426,343.633563 482.818277,349.242341 C485.136072,354.840204 490.602664,358.491969 496.670747,358.491969 L496.98429,358.488781 C505.116339,358.321791 511.660422,351.673995 511.660422,343.502293 C511.660422,337.434211 508.008657,331.967674 502.410795,329.649824 C496.802017,327.332029 490.351572,328.61142 486.065597,332.897143 Z M651.856547,338.83969 L651.856547,350.560214 L645.548036,350.560214 L645.548036,338.83969 L651.856547,338.83969 Z M669,291.910292 L669,332.517184 L628.393107,332.517184 L628.393107,291.910292 L669,291.910292 Z M657.617867,315.843952 L639.556084,315.843952 C637.80678,315.843952 636.396371,317.243445 636.396371,318.981833 C636.396371,320.731137 637.817696,322.141547 639.556084,322.141547 L657.617867,322.141547 C659.345339,322.141547 660.755748,320.720249 660.755748,318.981833 C660.755748,317.243417 659.345339,315.843952 657.617867,315.843952 Z M657.617867,302.308601 L639.556084,302.308601 C637.80678,302.308601 636.396371,303.708094 636.396371,305.446482 C636.396371,307.195786 637.817696,308.606196 639.556084,308.606196 L657.617867,308.606196 C659.345339,308.606196 660.755748,307.18487 660.755748,305.446482 C660.755748,303.708066 659.345339,302.308601 657.617867,302.308601 Z M651.856547,273.907287 L651.856547,285.627811 L645.548036,285.627811 L645.548036,273.907287 L651.856547,273.907287 Z M668.989056,227 L669,267.606893 L628.382163,267.606893 L628.382163,227 L668.989056,227 Z M622.095232,244.157728 L622.095232,250.455323 L500.10102,250.455323 L500.10102,260.568701 C498.001822,260.481234 495.902624,260.481234 493.792509,260.557757 L493.792509,247.295609 C493.792509,245.557221 495.202919,244.157728 496.952223,244.157728 L622.095232,244.157728 Z M657.617867,250.911828 L639.556084,250.911828 C637.80678,250.911828 636.396371,252.333154 636.396371,254.071542 C636.396371,255.820846 637.817696,257.231255 639.556084,257.231255 L657.617867,257.231255 C659.345339,257.231255 660.755748,255.80993 660.755748,254.071542 C660.755748,252.322238 659.345339,250.911828 657.617867,250.911828 Z M657.617867,237.376477 L639.556084,237.376477 C637.80678,237.376477 636.396371,238.797803 636.396371,240.536191 C636.396371,242.285495 637.817696,243.695904 639.556084,243.695904 L657.617867,243.695904 C659.345339,243.695904 660.755748,242.274579 660.755748,240.536191 C660.755748,238.786887 659.345339,237.376477 657.617867,237.376477 Z" id="Combined-Shape" fill="#FF2702"></path>
        <circle id="Oval" stroke="#FF2702" stroke-width="14" cx="544.5" cy="345.5" r="292.5"></circle>
    </g>
</svg>