<?xml version="1.0" encoding="UTF-8"?>
<svg width="1088px" height="690px" viewBox="0 0 1088 690" version="1.1" xmlns="http://www.w3.org/2000/svg" xmlns:xlink="http://www.w3.org/1999/xlink">
    <title>undraw_docusaurus_tree</title>
    <g id="Page-1" stroke="none" stroke-width="1" fill="none" fill-rule="evenodd">
        <path d="M646.789316,225 C653.517224,225.021284 658.978199,230.460975 658.999455,237.188883 L658.999861,384.802169 C658.999953,384.813543 659,384.824928 659,384.836324 L658.999,384.87 L658.999455,407.127969 C658.978171,413.855877 653.517224,419.295323 646.789316,419.316852 L582.655,419.316 L582.655948,430.064494 C592.313212,431.315975 600.50955,433.022113 606.478851,435.040585 C609.672482,436.105092 619.444681,439.415851 619.444681,446.409736 C619.444681,452.796997 611.758874,457.331672 595.248139,460.684998 C581.526346,463.463312 563.322733,464.996222 544.001254,464.996222 C524.69092,464.996222 506.48649,463.463296 492.765242,460.674353 C476.265134,457.331656 468.579328,452.786342 468.579328,446.39908 C468.579328,439.415824 478.330271,436.115911 481.545158,435.02993 C487.5229,433.015323 495.685325,431.303323 505.315825,430.057953 L505.316,419.316 L441.199511,419.316852 C434.471603,419.306197 429.010628,413.855877 429,407.127969 L429,237.188883 C429.010645,230.460975 434.471603,225.010628 441.199511,225 L646.789316,225 Z M581.673548,438.241599 L581.654089,438.278035 C576.414157,448.251404 552.084172,449.102997 544.012427,449.102997 C534.591203,449.102997 525.766274,448.081057 519.155548,446.239385 C512.448427,444.369815 508.146975,441.690766 506.321993,438.243994 C486.077401,440.857249 478.601442,444.736993 477.02137,446.388207 C478.266856,447.686915 483.365846,450.582521 496.863902,453.07333 C509.765963,455.447187 526.500163,456.75666 544.001226,456.75666 C561.491389,456.75666 578.245755,455.447296 591.149451,453.07333 C604.647507,450.582358 609.746579,447.686752 610.991983,446.388207 C609.420765,444.73644 601.931935,440.854817 581.673548,438.241599 Z M574.436535,419.316307 L513.588,419.316 L513.589432,433.572642 C513.593058,433.674626 513.592907,433.775975 513.589096,433.876542 L513.588291,434.123809 C513.588291,434.517679 514.972162,436.497681 521.370024,438.275338 C527.20353,439.89341 535.443092,440.830189 544.0124,440.830189 C552.581707,440.830189 560.821269,439.89341 566.654775,438.275338 C573.042036,436.486943 574.425879,434.506969 574.425879,434.123809 L574.436535,419.316307 Z M650.759,388.966 L619.326,388.966 L619.326,411.077 L646.789316,411.077018 C648.97158,411.077018 650.749265,409.309907 650.759893,407.127697 L650.759,388.966 Z M611.077,388.966 L437.239,388.966 L437.239562,407.127697 C437.250217,409.309961 439.017301,411.077018 441.199511,411.077018 L611.077,411.077 L611.077,388.966 Z M635.133749,395.89862 C637.358608,395.973153 639.114955,397.804116 639.114955,400.018265 C639.114955,402.243123 637.358499,404.063512 635.133749,404.148537 L634.942142,404.148537 C632.727939,404.063376 630.960936,402.243042 630.960936,400.018265 C630.960936,397.804061 632.728048,395.973017 634.942142,395.89862 L635.133749,395.89862 Z M551.589472,397.048316 C552.398521,397.825427 552.845613,398.900589 552.845613,400.01821 C552.845613,401.135831 552.398521,402.21113 551.589472,402.988104 C550.838237,403.709707 549.848336,404.119213 548.81575,404.14846 L539.432473,404.148537 C537.21827,404.063376 535.461896,402.243042 535.461896,400.018265 C535.461896,397.804061 537.218352,395.973017 539.432473,395.89862 L548.576792,395.89862 C549.69455,395.856053 550.78034,396.271206 551.589472,397.048316 Z M646.789316,233.239289 L441.199511,233.239289 C439.017247,233.239289 437.239562,235.006401 437.239562,237.18861 L437.239,380.727 L650.759,380.727 L650.759893,237.18861 C650.749238,235.006346 648.971498,233.239289 646.789316,233.239289 Z M544.011555,238.794773 C559.787856,238.794773 572.636776,251.473097 572.849339,267.248308 L572.849225,288.079714 C577.766823,289.771991 581.30205,294.438757 581.310485,299.930277 L581.31,301.826 L602.899036,297.37679 L605.596978,287.325843 C604.065516,286.054906 602.830306,284.411152 602.037881,282.4938 C600.100446,277.831301 601.175609,272.46598 604.741771,268.88919 C608.318561,265.323028 613.68361,264.258575 618.35701,266.195955 C623.019509,268.13339 626.053444,272.689498 626.042844,277.73543 C626.032161,284.62276 620.45403,290.200918 613.5667,290.200918 L613.381,290.198 L610.222721,301.965137 L610.222721,301.975765 C609.818197,303.476736 608.593994,304.626432 607.071876,304.935031 L581.31,310.244 L581.31,316.282 L617.065698,316.28223 C617.612718,314.916361 618.43611,313.648004 619.518533,312.565543 C622.690907,309.393169 627.459961,308.445899 631.600862,310.159733 C635.741763,311.88425 638.44568,315.92947 638.435083,320.411018 C638.435083,326.53203 633.474418,331.482035 627.353406,331.49269 C622.871832,331.49269 618.826584,328.7888 617.112723,324.647872 L617.062,324.521 L581.31,324.521 L581.31,330.557 L607.051383,335.84779 C608.573637,336.167153 609.797812,337.316822 610.202228,338.817684 L613.360441,350.594625 C615.041206,350.565881 616.741271,350.876774 618.35701,351.548113 C623.008881,353.485548 626.053444,358.031028 626.042844,363.076959 C626.032161,369.96429 620.45403,375.542447 613.5667,375.542447 C608.520796,375.542447 603.964851,372.497829 602.037881,367.83533 C600.111102,363.17283 601.186264,357.807509 604.752399,354.241347 C605.025168,353.969389 605.308337,353.711979 605.600802,353.469341 L602.899853,343.39543 L581.31,338.988 L581.310485,340.914159 C581.299829,347.823019 575.689815,353.433061 568.770327,353.443689 L568.770327,353.433061 L519.226675,353.433061 C512.307187,353.433061 506.707774,347.823019 506.697146,340.914159 L506.697,338.994 L485.120258,343.427451 L482.43411,353.485126 C485.234112,355.815975 486.930891,359.309968 486.930891,363.076932 C486.909607,369.953634 481.342105,375.531792 474.454775,375.54242 C469.408871,375.553048 464.863554,372.519085 462.925956,367.856586 C460.988521,363.194087 462.053056,357.818137 465.629846,354.251975 C468.065267,351.816554 471.339666,350.542939 474.656403,350.597187 L477.818974,338.807192 C478.223499,337.306221 479.447701,336.156524 480.969819,335.837298 L506.697,330.551 L506.697,324.521 L470.943605,324.521587 C469.311218,328.606936 465.317663,331.49269 460.649101,331.49269 C456.167526,331.49269 452.122279,328.7888 450.408417,324.647872 C448.694555,320.506944 449.641962,315.737918 452.814227,312.565543 C455.986602,309.393169 460.755655,308.445899 464.896556,310.159733 C467.704674,311.3292 469.851957,313.565903 470.939993,316.282178 L506.697,316.282 L506.697,310.262 L480.971536,304.977434 C479.449282,304.658071 478.225106,303.508402 477.820691,302.00754 L474.653653,290.199034 C474.587486,290.200168 474.521191,290.200789 474.454775,290.200891 C469.408871,290.211518 464.852926,287.177556 462.915328,282.515057 C460.977893,277.841929 462.042427,272.476608 465.619217,268.899818 C469.185379,265.333656 474.561056,264.258575 479.223828,266.195928 C483.886327,268.133363 486.930891,272.689471 486.930891,277.735402 C486.918993,281.579638 485.173864,285.018069 482.433848,287.304911 L485.144594,297.408538 L506.697,301.831 L506.697146,299.930277 C506.70561,294.433702 510.240621,289.763401 515.162526,288.075049 L515.162869,267.240133 C515.386415,251.47446 528.235254,238.794773 544.011555,238.794773 Z M613.566564,358.839968 C613.077968,358.840105 612.602895,358.923049 612.157983,359.07803 C612.013322,359.150004 611.863339,359.211989 611.709921,359.26499 C610.787468,359.707578 610.036522,360.477198 609.628034,361.458833 C608.968024,363.055621 609.329955,364.886556 610.554157,366.100075 C611.767704,367.324278 613.598721,367.686208 615.1954,367.026198 C616.781532,366.366189 617.824756,364.811995 617.824756,363.098133 C617.824756,361.959093 617.367009,360.88393 616.568615,360.085454 C615.77022,359.28706 614.695058,358.839968 613.566564,358.839968 Z M474.454802,358.840105 C472.730285,358.818821 471.176146,359.851389 470.505481,361.437522 C469.834843,363.03431 470.186117,364.865245 471.41032,366.089393 C472.623867,367.313595 474.454884,367.686181 476.051563,367.026171 C477.648351,366.376817 478.680919,364.822623 478.691574,363.098106 C478.691574,360.827115 476.909833,358.966536 474.666383,358.846168 L474.454802,358.840105 Z M519.226675,295.618508 C516.863432,295.618508 514.936707,297.545287 514.936707,299.908476 L514.93733,320.288457 L514.93916,320.41268 L514.936,320.535 L514.937521,333.605546 C514.956138,333.834243 514.955452,334.060923 514.936687,334.283787 L514.936707,340.892358 C514.947363,343.255601 516.863487,345.171698 519.226675,345.171698 L568.770327,345.171698 C571.144198,345.171698 573.060295,343.255574 573.060295,340.892358 L573.06009,334.341184 C573.034437,334.079341 573.033789,333.812114 573.060142,333.542507 L573.060157,307.739764 C573.032062,307.602157 573.010726,307.461893 572.996526,307.319312 C572.951353,306.886938 572.975295,306.462823 573.059654,306.058035 L573.060295,299.908476 C573.060295,297.720199 571.417394,295.915309 569.289462,295.65161 C569.10537,295.679413 568.918306,295.692333 568.729668,295.692333 C568.464826,295.694813 568.203301,295.669389 567.947868,295.62004 L519.226675,295.618508 Z M548.301904,310.032413 C552.496219,311.778214 555.23202,315.865919 555.23202,320.411508 C555.223866,325.152623 552.279384,329.2019 548.12095,330.84649 L548.120871,334.867545 C548.120871,337.145626 546.279253,338.997817 544.001226,338.997817 C541.723145,338.987162 539.881582,337.145544 539.881582,334.867545 L539.881318,330.849411 C537.102915,329.753006 534.818494,327.567845 533.632759,324.701558 C531.897587,320.507244 532.855649,315.674421 536.070509,312.470162 C539.274767,309.255275 544.10759,308.297377 548.301904,310.032413 Z M544.001254,317.420412 L544.001226,317.431068 C542.798308,317.431068 541.712517,318.154928 541.244168,319.26203 C540.786421,320.379787 541.041906,321.657212 541.893523,322.508802 C542.745139,323.371074 544.03322,323.626559 545.140294,323.158156 C546.258051,322.700409 546.981912,321.614591 546.981912,320.411726 C546.981912,319.613332 546.673204,318.857533 546.109012,318.303968 C545.544819,317.739776 544.788992,317.420412 544.001254,317.420412 Z M460.649074,317.557979 C459.499377,317.568689 458.456154,318.260611 458.019717,319.325145 C457.572625,320.389652 457.817455,321.613855 458.637133,322.42285 C459.45681,323.242527 460.681013,323.487357 461.745465,323.040265 C462.796139,322.598995 463.483839,321.587369 463.491352,320.445513 C463.489838,320.434791 463.489794,320.423741 463.489794,320.41268 L463.49,320.365 L463.486352,320.197433 C463.443968,319.523205 463.144827,318.872179 462.66096,318.388312 C462.177093,317.904445 461.534851,317.614111 460.854235,317.565322 L460.649074,317.557979 Z M627.353216,317.55787 C626.203683,317.558034 625.160459,318.249983 624.713367,319.31449 C624.5922,319.610009 624.523541,319.918656 624.504883,320.227676 C624.508842,320.289009 624.510206,320.350687 624.510206,320.41268 L624.504953,320.576425 C624.546486,321.260714 624.830971,321.923044 625.330783,322.422822 C626.15046,323.2425 627.374663,323.48733 628.439115,323.040238 C629.503623,322.603774 630.195571,321.56055 630.195571,320.400226 C630.195571,318.835377 628.918146,317.568498 627.353216,317.55787 Z M544.011282,246.641665 C532.631503,246.641665 523.412787,255.871009 523.412787,267.250788 L523.412,287.4 L564.609,287.4 L564.609778,267.250788 C564.609778,255.871009 555.391061,246.641665 544.011282,246.641665 Z M613.566564,273.487756 C611.84221,273.48792 610.288071,274.531143 609.628034,276.117276 C608.968024,277.714064 609.329955,279.544999 610.554157,280.758519 C610.777872,280.984198 611.022571,281.180573 611.282917,281.346645 L611.48,281.464 L611.698342,281.530105 C611.955946,281.616394 612.199863,281.725898 612.428367,281.855611 C613.322822,282.103911 614.296266,282.056311 615.1954,281.684642 C616.781532,281.024632 617.824756,279.470438 617.824756,277.745949 C617.824756,276.617563 617.367009,275.542401 616.568615,274.743898 C615.77022,273.945504 614.695058,273.487756 613.566564,273.487756 Z M474.454747,273.487838 C472.730285,273.477264 471.176146,274.50986 470.505481,276.095992 C469.834843,277.692781 470.186117,279.523716 471.41032,280.747863 C472.557167,281.90478 474.255472,282.301122 475.786305,281.784142 C475.96615,281.690472 476.155262,281.61123 476.352311,281.545756 C477.77725,280.834126 478.681606,279.369223 478.691574,277.745949 C478.691574,275.414645 476.796734,273.509122 474.454747,273.487838 Z" id="Combined-Shape" fill="#FF2702"></path>
        <circle id="Oval" stroke="#FF2702" stroke-width="14" cx="544.5" cy="345.5" r="292.5"></circle>
    </g>
</svg>