<?xml version="1.0" encoding="UTF-8"?>
<svg width="1088px" height="690px" viewBox="0 0 1088 690" version="1.1" xmlns="http://www.w3.org/2000/svg" xmlns:xlink="http://www.w3.org/1999/xlink">
    <title>undraw_docusaurus_mountain</title>
    <g id="Page-1" stroke="none" stroke-width="1" fill="none" fill-rule="evenodd">
        <path d="M499.416873,318.127064 C489.50302,310.935845 478.534907,300.582693 473.616345,288.626934 C469.729838,279.163058 469.554175,268.831829 476.31717,258.390424 C478.897223,254.404984 482.333555,251.122476 486.308034,248.761847 C490.304436,246.379408 494.827546,244.897263 499.548522,244.524014 C500.767173,244.436183 501.908982,244.86435 502.743339,245.643872 C509.824663,251.341816 518.311572,254.525952 526.973862,255.085825 C535.669318,255.645754 544.540156,253.59269 552.31317,248.827728 C556.990301,245.380237 561.831853,242.163498 566.827425,239.199151 C596.274154,221.65478 630.054839,212.948644 664.341433,214.101274 C666.504279,214.167155 668.238901,215.868893 668.392641,217.97682 C671.269016,252.833967 663.836366,286.923818 648.059587,316.578532 C645.073317,321.705641 642.438373,326.536512 639.144623,331.520842 C634.753049,339.513646 633.117276,348.472175 634.105204,357.156669 C635.104291,365.863086 638.74917,374.283946 644.897373,381.112596 C645.709807,382.012862 646.061133,383.16566 645.96234,384.28549 C645.775716,388.95166 644.524096,393.452847 642.383313,397.482133 C640.231456,401.566226 637.113425,405.156495 633.248841,407.945179 C623.148081,415.213128 612.828095,415.53157 603.189399,412.106283 C590.991928,407.769517 580.111787,397.284828 572.446981,387.743942 L571.601607,386.94247 L568.703309,389.972585 C566.079354,392.585578 562.620874,393.947064 559.162704,394.023794 C556.824194,394.078685 554.46365,393.551696 552.322811,392.442827 L541.969659,403.312006 C540.366742,404.991794 537.709903,405.057646 536.030003,403.454729 L485.503723,355.311843 C483.823935,353.708926 483.758083,351.052087 485.361,349.372187 L495.714152,338.503008 C494.495501,336.427993 493.858701,334.089512 493.80381,331.751087 C493.715979,328.161099 495.000511,324.526984 497.657433,321.7383 L500.281388,318.993574 L499.414063,318.17015 L499.416873,318.127064 Z M500.657503,308.531371 C509.770053,291.459182 521.440536,276.274035 535.031226,263.33119 C532.176774,263.627625 529.300117,263.671527 526.445665,263.495864 C516.564695,262.848103 506.87035,259.356683 498.647076,253.120789 C495.770701,253.559947 493.047785,254.537082 490.610427,255.997164 C487.72309,257.720853 485.219683,260.10318 483.35344,262.990798 C478.347187,270.719967 478.489685,278.40529 481.377246,285.45373 C485.011361,294.291684 492.839182,302.350256 500.656323,308.542304 L500.657503,308.531371 Z M571.141904,246.411337 C544.495945,262.286769 522.17551,285.442235 507.276483,314.020486 L534.52616,339.974755 L583.919766,288.121867 C585.808157,286.134684 588.344223,285.102714 590.902438,285.036664 C593.44955,284.981773 596.029547,285.882039 598.016646,287.770429 C600.003745,289.65882 601.0358,292.194887 601.101849,294.753101 C601.101849,297.464887 600.256475,299.88021 598.368084,301.867309 L548.963236,353.731439 L576.212913,379.685707 C598.983326,366.37917 617.888593,348.274364 631.986597,327.130168 C635.038635,322.486203 637.871446,317.830994 640.495147,312.923394 C647.236107,298.980254 652.066978,288.100113 655.766861,272.883488 L610.094499,229.383724 C596.403751,233.423972 583.317003,239.166042 571.142297,246.423029 L571.141904,246.411337 Z M660.280302,222.422244 C646.413892,222.257543 632.789194,223.794607 619.636116,226.857663 L657.821021,263.229727 C660.247362,249.945113 661.114771,236.254365 660.291292,222.419715 L660.280302,222.422244 Z M625.487799,349.515079 C613.213317,363.721853 598.611371,376.10595 581.999278,386.041726 C588.564575,393.540425 596.985434,400.962114 605.98837,404.167892 C613.179589,406.725994 620.864913,406.506402 628.341408,401.126816 C631.119075,399.128643 633.369865,396.515734 634.950832,393.540425 C636.301244,391.037243 637.157608,388.270538 637.454014,385.394162 C630.811707,377.478369 626.859432,367.948725 625.728443,358.122562 C625.410058,355.26811 625.322226,352.391454 625.475938,349.52604 L625.487799,349.515079 Z M554.652073,383.770756 L555.036339,384.122082 C556.134218,385.143119 557.561501,385.637167 558.966692,385.604227 C560.328094,385.571287 561.678478,385.044298 562.721382,384.045212 L565.520999,381.12471 L506.366155,324.757988 L503.753162,327.502714 C502.688195,328.622573 502.183185,330.082767 502.216097,331.521039 C502.249038,332.959283 502.830918,334.397414 503.950776,335.451392 C520.781533,351.612382 537.765188,367.663758 554.662557,383.760104 L554.652073,383.770756 Z M538.798564,394.442349 L545.879888,387.020661 L501.438571,344.676057 L494.357247,352.108707 L538.798564,394.442349 Z M478.052916,393.695796 C479.304508,391.752514 481.906539,391.192613 483.849793,392.444204 C485.793075,393.695796 486.352976,396.297828 485.101384,398.241081 C483.289864,401.040699 480.830667,405.465184 479.601027,409.538316 C479.22775,410.756967 478.975217,411.898776 478.909364,412.832066 C479.831581,412.722284 480.951439,412.41486 482.148027,411.986692 C486.100302,410.581388 490.415146,407.891637 493.149023,405.926461 C495.037414,404.576049 497.672414,405.004245 499.02263,406.892607 C500.373042,408.780998 499.944846,411.415998 498.056483,412.766213 C494.883589,415.038842 489.811287,418.189842 484.947532,419.913587 C481.02814,421.307901 477.108468,421.790988 473.880767,420.451565 C472.936572,420.08925 472.113148,419.386598 471.6191,418.420452 C470.005193,415.236596 470.301628,411.20731 471.520279,407.14514 C472.991463,402.259462 475.900891,397.022458 478.04173,393.718028 L478.052916,393.695796 Z M496.77212,377.139635 C498.649522,378.501036 499.055739,381.125075 497.694365,383.00228 C496.332963,384.879681 493.708924,385.285898 491.83172,383.924496 C491.085166,383.375556 490.327595,382.936399 489.548102,382.442351 C482.093529,378.149711 472.552643,377.545711 463.582872,379.675673 C454.481283,381.83852 446.093308,386.789882 441.185707,393.520161 C440.658719,394.266714 440.186621,394.969366 439.813344,395.606165 C438.100617,398.515706 436.991776,401.677638 436.574682,404.872455 C436.410008,406.145998 436.355117,407.430557 436.410008,408.715117 C439.088854,407.408635 441.668935,406.574222 444.1611,406.211934 C448.640646,405.553184 452.768584,406.365646 456.622207,408.660226 C458.60939,409.845937 459.257151,412.43712 458.071412,414.424219 C457.807918,414.874365 457.467581,415.247642 457.083315,415.555038 C448.399102,422.460699 441.350381,431.035299 436.27836,440.586866 C432.040527,448.590631 429.186063,457.285808 427.934219,466.299425 C436.860155,464.619637 445.412832,461.347979 453.207769,456.725933 C462.517905,451.203652 470.741179,443.737837 477.207823,434.735182 C478.558235,432.857781 481.193264,432.429613 483.070468,433.780025 C483.498636,434.087421 483.849962,434.460726 484.124445,434.866943 C486.594716,438.588749 487.60482,442.672842 487.165522,447.17431 C486.923979,449.688482 486.210366,452.301419 485.046578,455.035296 C486.331109,455.035296 487.615641,454.914525 488.878278,454.68397 C492.073095,454.113052 495.169259,452.861461 497.957944,451.027933 C498.605704,450.599765 499.286405,450.105717 499.978067,449.545788 C506.477596,444.308784 511.011948,435.7013 512.735693,426.512021 C514.437431,417.38851 513.339524,407.792816 508.57459,400.524868 C508.102492,399.800265 507.608443,399.119565 507.114395,398.504744 C505.66519,396.693224 505.950635,394.047403 507.762156,392.597973 C509.573676,391.148543 512.219497,391.434213 513.668927,393.245733 C514.382568,394.135037 515.04129,395.035303 515.62317,395.924607 C521.639555,405.102925 523.077743,416.949352 521.002953,428.061087 C518.938899,439.11689 513.339552,449.590898 505.248096,456.101388 C504.435662,456.760138 503.524407,457.40787 502.569222,458.044669 C498.792328,460.525901 494.620545,462.227696 490.327624,462.985154 C486.133636,463.731736 481.774947,463.599974 477.526152,462.491106 C477.119935,462.392296 476.713718,462.216633 476.351403,461.997057 C474.364219,460.789368 473.749399,458.198241 474.957089,456.222103 C477.229718,452.511259 478.514193,449.239431 478.799751,446.384979 L478.821702,446.209316 C472.640615,453.279679 465.416512,459.26318 457.500718,463.973195 C447.202374,470.088516 435.685631,474.062712 423.686304,475.468015 L422.928761,475.489972 C420.612202,475.336268 418.855629,473.327125 419.00937,471.010426 C419.832793,458.955452 423.247203,447.263041 428.857455,436.678857 C433.172302,428.532594 438.793516,421.033895 445.545437,414.534366 L445.402714,414.556345 C442.548262,414.973552 439.342483,416.411796 435.774137,418.848985 C435.4338,419.06855 435.071485,419.255202 434.676229,419.375974 C432.469453,420.067636 430.108987,418.848985 429.406336,416.642209 C428.066913,412.448221 427.726548,408.078571 428.275516,403.829776 C428.835445,399.49301 430.317591,395.244215 432.601327,391.36867 C433.194196,390.347632 433.809017,389.425388 434.401858,388.601964 C440.539099,380.203028 450.727549,374.09867 461.662497,371.496892 C472.553598,368.905849 484.344938,369.751252 493.776491,375.185813 C494.808518,375.745742 495.840545,376.459355 496.795645,377.151046 L496.77212,377.139635 Z M590.016816,293.920374 L540.611967,345.773261 L542.873634,347.925118 L592.26724,296.072231 C592.552686,295.775797 592.695408,295.35859 592.695408,294.963363 C592.684419,294.557145 592.519745,294.16189 592.212321,293.865483 C591.904897,293.569049 591.487719,293.426326 591.092463,293.437315 C590.697207,293.448305 590.29099,293.612978 590.005545,293.920402 L590.016816,293.920374 Z M631.012328,253.144089 C635.502835,257.425768 637.84126,263.134954 637.984039,268.887985 C638.115772,274.641016 636.062736,280.459816 631.781029,284.950041 C627.499351,289.440548 621.790165,291.778973 616.037133,291.921752 C610.284102,292.053513 604.476264,290.01141 599.975077,285.718742 C595.48457,281.437064 593.135184,275.716917 593.003367,269.963885 C592.871549,264.210854 594.924669,258.392054 599.206376,253.901829 C603.488055,249.400361 609.19724,247.061936 614.950272,246.930118 C620.703303,246.798385 626.522103,248.851421 631.012328,253.133128 L631.012328,253.144089 Z M629.585074,269.096532 C629.497242,265.495582 628.026058,261.927236 625.215423,259.237485 C622.393855,256.54765 618.748779,255.263006 615.147829,255.350978 C611.54688,255.43895 607.978533,256.909993 605.288782,259.720628 C602.609909,262.531235 601.314303,266.176311 601.402275,269.777261 C601.490247,273.378211 602.961291,276.957518 605.771926,279.647269 C608.593494,282.326115 612.23857,283.621749 615.83952,283.533777 C619.429508,283.445945 623.008816,281.974761 625.698567,279.164126 C628.388402,276.342558 629.673046,272.697482 629.585074,269.096532 Z" id="Fill-1" fill="#FF2702"></path>
        <circle id="Oval" stroke="#FF2702" stroke-width="14" cx="544.5" cy="345.5" r="292.5"></circle>
    </g>
</svg>